<?xml version="1.0" encoding="UTF-8"?>
<svg id="Calque_1" xmlns="http://www.w3.org/2000/svg" version="1.1" viewBox="0 0 100 100">
  <!-- Generator: Adobe Illustrator 29.0.1, SVG Export Plug-In . SVG Version: 2.1.0 Build 192)  -->
  <path d="M85.02,62.8l4.65-19.6c.07,0,.14.01.21.01,3.44,0,6.24-2.8,6.24-6.24s-2.8-6.24-6.24-6.24-6.24,2.8-6.24,6.24c0,.29.03.57.06.84l-6.33,2.41c-1.34-4.2-3.83-7.89-7.09-10.72l2.32-3.61c1.79.87,3.79,1.37,5.91,1.37,7.52,0,13.63-6.11,13.63-13.63S86.02,0,78.5,0s-13.63,6.11-13.63,13.63c0,3.96,1.71,7.52,4.42,10.01l-2.24,3.5c-3.58-2.18-7.79-3.43-12.28-3.43-7.69,0-14.53,3.68-18.87,9.37l-4.64-3.22c1.72-2.65,2.73-5.81,2.73-9.2,0-9.37-7.62-16.99-16.99-16.99S0,11.29,0,20.66c0,8.57,6.39,15.66,14.65,16.81l-1.03,10.01c-4.58.07-8.29,3.81-8.29,8.41s3.78,8.42,8.42,8.42,8.42-3.78,8.42-8.42c0-4-2.81-7.35-6.55-8.2l1.04-10.05c.12,0,.23.02.35.02,4.9,0,9.31-2.1,12.41-5.43l4.82,3.35c-2.02,3.49-3.19,7.54-3.19,11.86,0,6.6,2.71,12.58,7.08,16.89l-8.28,11.4c-1.69-.83-3.58-1.3-5.59-1.3-7.05,0-12.79,5.74-12.79,12.79s5.74,12.79,12.79,12.79,12.79-5.74,12.79-12.79c0-3.61-1.51-6.87-3.93-9.2l8.08-11.12c3.85,2.69,8.52,4.27,13.56,4.27,5.31,0,10.22-1.76,14.18-4.72l1.52,1.79c-2.69,2.94-4.36,6.83-4.44,11.1l-10.95-1.27c-.41-2.54-2.6-4.49-5.25-4.49-2.94,0-5.33,2.39-5.33,5.33s2.39,5.33,5.33,5.33c2.54,0,4.66-1.79,5.2-4.17l11.07,1.28c.85,8.58,8.11,15.31,16.91,15.31,9.37,0,16.99-7.62,16.99-16.99,0-8.69-6.56-15.86-14.98-16.86ZM84.26,22.55c-1.66,1.08-3.64,1.71-5.76,1.71s-4.1-.63-5.76-1.71v-2.97c0-1.21.87-2.24,2.06-2.45l1.09-.19c.77.45,1.66.73,2.61.73s1.84-.28,2.61-.73l1.09.19c1.19.21,2.06,1.24,2.06,2.45v2.97ZM76.28,12.45v-.94c0-1.23,1-2.22,2.22-2.22s2.22,1,2.22,2.22v.94c0,1.23-1,2.22-2.22,2.22s-2.22-1-2.22-2.22ZM67.87,13.63c0-5.86,4.77-10.63,10.63-10.63s10.63,4.77,10.63,10.63c0,2.23-.69,4.3-1.87,6.01v-.06c0-2.45-1.61-4.54-3.9-5.23.23-.59.37-1.23.37-1.9v-.94c0-2.88-2.34-5.22-5.22-5.22s-5.22,2.34-5.22,5.22v.94c0,.67.14,1.31.37,1.9-2.29.69-3.9,2.79-3.9,5.23v.06c-1.18-1.71-1.87-3.78-1.87-6.01ZM19.16,55.89c0,2.99-2.43,5.42-5.42,5.42s-5.42-2.43-5.42-5.42,2.43-5.42,5.42-5.42,5.42,2.43,5.42,5.42ZM24.76,32.29c-2.22,1.49-4.9,2.36-7.77,2.36s-5.54-.87-7.77-2.36v-4.03c0-1.75,1.25-3.24,2.97-3.54l1.51-.26c.96.6,2.08.94,3.29.94s2.33-.35,3.29-.94l1.51.26c1.72.3,2.97,1.79,2.97,3.54v4.03ZM13.74,19.15v-1.21c0-1.79,1.46-3.25,3.26-3.25s3.26,1.46,3.26,3.25v1.21c0,1.79-1.46,3.25-3.26,3.25s-3.26-1.46-3.26-3.25ZM22.62,21.86c.4-.82.62-1.73.62-2.7v-1.21c0-3.45-2.81-6.25-6.26-6.25s-6.26,2.81-6.26,6.25v1.21c0,.97.23,1.88.62,2.7-2.99.68-5.14,3.31-5.14,6.41v1.32c-2.01-2.42-3.23-5.53-3.23-8.92,0-7.72,6.28-13.99,13.99-13.99s13.99,6.28,13.99,13.99c0,3.39-1.21,6.5-3.22,8.92v-1.32c0-3.1-2.15-5.73-5.14-6.41ZM29.52,95.46c-1.52.97-3.32,1.54-5.26,1.54s-3.73-.57-5.26-1.54v-2.71c0-1.08.77-1.99,1.83-2.18l.97-.17c.73.42,1.56.67,2.45.67s1.73-.26,2.45-.67l.97.17c1.06.19,1.83,1.1,1.83,2.18v2.71ZM22.3,86.11v-.88c0-1.08.88-1.97,1.97-1.97s1.97.88,1.97,1.97v.88c0,1.08-.88,1.97-1.97,1.97s-1.97-.88-1.97-1.97ZM34.06,87.21c0,1.95-.58,3.76-1.56,5.28-.11-2.18-1.54-4.03-3.58-4.69.19-.53.32-1.1.32-1.7v-.88c0-2.74-2.23-4.97-4.97-4.97s-4.97,2.23-4.97,4.97v.88c0,.6.12,1.17.32,1.7-2.04.66-3.48,2.51-3.58,4.69-.98-1.53-1.56-3.34-1.56-5.28,0-5.4,4.39-9.79,9.79-9.79s9.79,4.39,9.79,9.79ZM89.87,33.73c1.79,0,3.24,1.45,3.24,3.24s-1.45,3.24-3.24,3.24-3.24-1.45-3.24-3.24,1.45-3.24,3.24-3.24ZM84.29,39.73c.7,1.42,1.92,2.53,3.42,3.08l-4.71,19.86c-3.16,0-6.11.89-8.65,2.4l-1.73-2.04c3.65-4.17,5.87-9.63,5.87-15.6,0-1.81-.21-3.57-.6-5.27l6.39-2.44ZM66.56,64.45c-3.35,2.33-7.41,3.71-11.79,3.71s-8.44-1.38-11.79-3.71v-6.11c0-2.82,2.02-5.23,4.8-5.72l2.4-.42c1.32.88,2.89,1.39,4.59,1.39s3.27-.51,4.59-1.39l2.4.42c2.78.49,4.8,2.89,4.8,5.72v6.11ZM49.45,45.27v-1.73c0-2.93,2.39-5.32,5.32-5.32s5.32,2.39,5.32,5.32v1.73c0,2.93-2.39,5.32-5.32,5.32s-5.32-2.39-5.32-5.32ZM62.28,49.67l-.42-.07c.77-1.26,1.23-2.74,1.23-4.33v-1.73c0-4.59-3.73-8.32-8.32-8.32s-8.32,3.73-8.32,8.32v1.73c0,1.59.45,3.06,1.23,4.33l-.42.07c-4.22.74-7.28,4.39-7.28,8.67v3.58c-3.66-3.74-5.93-8.85-5.93-14.48,0-11.43,9.3-20.72,20.72-20.72s20.72,9.3,20.72,20.72c0,5.64-2.27,10.75-5.93,14.48v-3.58c0-4.28-3.06-7.93-7.28-8.67ZM49.84,81.24c-1.29,0-2.33-1.05-2.33-2.33s1.05-2.33,2.33-2.33,2.33,1.05,2.33,2.33-1.05,2.33-2.33,2.33ZM90.77,91.3c-2.22,1.49-4.9,2.36-7.77,2.36s-5.54-.87-7.77-2.36v-4.03c0-1.75,1.25-3.24,2.97-3.54l1.51-.26c.96.6,2.08.95,3.29.95s2.33-.35,3.29-.94l1.51.26c1.72.3,2.97,1.79,2.97,3.54v4.03ZM79.75,78.16v-1.21c0-1.79,1.46-3.26,3.26-3.26s3.25,1.46,3.25,3.26v1.21c0,1.79-1.46,3.26-3.25,3.26s-3.26-1.46-3.26-3.26ZM93.77,88.59v-1.32c0-3.1-2.15-5.73-5.14-6.41.4-.82.62-1.74.62-2.71v-1.21c0-3.45-2.81-6.26-6.25-6.26s-6.26,2.81-6.26,6.26v1.21c0,.97.23,1.89.62,2.71-2.99.68-5.14,3.31-5.14,6.41v1.32c-2.01-2.42-3.23-5.53-3.23-8.92,0-7.72,6.28-13.99,13.99-13.99s13.99,6.28,13.99,13.99c0,3.39-1.21,6.5-3.23,8.92Z" fill="#d6ad3d"/>
</svg>