<?xml version="1.0" encoding="UTF-8"?>
<svg id="Calque_1" xmlns="http://www.w3.org/2000/svg" version="1.1" viewBox="0 0 100 100">
  <!-- Generator: Adobe Illustrator 29.0.1, SVG Export Plug-In . SVG Version: 2.1.0 Build 192)  -->
  <g>
    <path d="M52.4.02c-.27-.01-.54-.02-.8-.02-10.06,0-18.42,7.94-18.85,18.08-.44,10.42,7.65,19.21,18.07,19.65.27.01.54.02.8.02,10.06,0,18.42-7.94,18.85-18.08C70.91,9.25,62.82.45,52.4.02ZM51.63,34.75c-.23,0-.45,0-.68-.01-4.24-.18-8.15-1.99-11.02-5.12-2.87-3.12-4.35-7.17-4.18-11.41.36-8.53,7.32-15.21,15.85-15.21.23,0,.45,0,.68.01,4.24.18,8.15,1.99,11.02,5.12,2.87,3.12,4.35,7.17,4.18,11.41-.36,8.53-7.32,15.21-15.85,15.21Z" fill="#d6ad3d"/>
    <path d="M63.15,17.86l-22.94-.96c-.4-.02-.79.12-1.08.39-.29.27-.47.64-.48,1.04-.15,3.46,1.07,6.78,3.41,9.33s5.55,4.04,9.01,4.18c.19,0,.37.01.56.01,3.26,0,6.36-1.2,8.77-3.43,2.55-2.35,4.04-5.55,4.18-9.01.03-.83-.61-1.53-1.44-1.56ZM58.37,26.22c-1.96,1.8-4.51,2.73-7.17,2.62-4.99-.21-8.98-4.07-9.5-8.89l19.72.83c-.4,2.08-1.45,3.97-3.04,5.44Z" fill="#d6ad3d"/>
    <path d="M45.91,14.1s.04,0,.06,0c.8,0,1.46-.63,1.5-1.44l.1-2.51c.03-.83-.61-1.53-1.44-1.56-.86-.05-1.53.61-1.56,1.44l-.1,2.51c-.03.83.61,1.53,1.44,1.56Z" fill="#d6ad3d"/>
    <path d="M57.7,14.59s.04,0,.06,0c.8,0,1.46-.63,1.5-1.44l.11-2.51c.03-.83-.61-1.53-1.44-1.56-.82-.04-1.53.61-1.56,1.44l-.11,2.51c-.03.83.61,1.53,1.44,1.56Z" fill="#d6ad3d"/>
  </g>
  <g>
    <path d="M96.42,51.19c-1.85-2.64-4.27-4.79-7.08-6.38.52-3.5-1.75-6.86-5.26-7.63-1.77-.39-3.59-.06-5.12.92-1.4.9-2.39,2.24-2.85,3.82-3.21.27-6.32,1.21-9.1,2.84-4.77,2.78-8.02,7.17-9.16,12.35l-1.77,8.07c-1.68.8-2.92,2.34-3.33,4.19-.72,3.28,1.36,6.54,4.64,7.25l.98.21-.22,1.02c-1.96,8.95,3.72,17.82,12.67,19.79,1.19.26,2.39.39,3.56.39,3.15,0,6.17-.91,8.75-2.52l7.46,4.3c.23.13.49.2.75.2.37,0,.73-.13,1.01-.39.48-.44.62-1.14.35-1.73-2.63-5.73-2.23-11.38-1.84-13.93l1.24.27c.42.09.83.14,1.24.14,2.66,0,5.05-1.84,5.65-4.54l.13-.61c.41-1.86-.14-3.71-1.3-5.04l1.74-7.92c1.14-5.18.02-10.53-3.15-15.05ZM80.58,40.62c.85-.55,1.87-.73,2.86-.51,1.63.36,2.77,1.73,2.95,3.3-1.11-.43-2.25-.8-3.44-1.06-1.19-.26-2.38-.41-3.57-.48.3-.5.69-.93,1.2-1.25ZM60.79,57.74c.96-4.35,3.7-8.05,7.74-10.41,4.08-2.38,8.97-3.11,13.78-2.05,4.81,1.05,8.95,3.76,11.66,7.63,2.68,3.83,3.63,8.33,2.67,12.69l-1.5,6.83c-.14-.04-.27-.08-.41-.11l-1.69-.37-.38-4.69c-.04-.42-.25-.81-.58-1.07s-.77-.36-1.18-.29l-12.91,2.36,1.17-1.92c.31-.51.29-1.16-.06-1.65s-.96-.72-1.54-.59l-15.77,3.49-2.85-1.3,1.87-8.54ZM58.05,73.68c-1.67-.37-2.72-2.02-2.36-3.68.13-.59.43-1.1.84-1.51.01,0,.02.02.04.02l3.31,1.51-.85,3.87-.98-.21ZM71.47,94.7c-3.55-.78-6.59-2.89-8.55-5.96s-2.61-6.7-1.83-10.26l.54-2.48s0,0,0,0l1.22-5.58,11.9-2.63-1.08,1.77c-.31.5-.29,1.14.05,1.63.33.49.92.73,1.5.62l14.57-2.66.33,4.03-.78,3.55-1.12,5.09c-.03.11-.1.4-.19.86l-.36,1.65c-1.61,7.33-8.88,11.99-16.21,10.38ZM85.73,93.53c.75-.7,1.44-1.48,2.05-2.31.15,1.25.39,2.57.76,3.94l-2.81-1.62ZM96.2,78.56l-.13.61c-.33,1.5-1.83,2.45-3.31,2.12l-1.28-.28.9-4.1.4-1.84,1.97.43c1.1.56,1.73,1.8,1.46,3.06Z" fill="#d6ad3d"/>
    <path d="M82.43,81.89l-15.55-3.41c-.81-.18-1.61.33-1.79,1.14l-.59,2.67c-.38,1.75-.06,3.55.9,5.07.97,1.51,2.47,2.56,4.22,2.94l5.35,1.17c.48.11.97.16,1.45.16,1.27,0,2.52-.36,3.61-1.06,1.51-.97,2.56-2.47,2.94-4.22l.59-2.67c.09-.39.01-.79-.2-1.13-.21-.33-.55-.57-.94-.66ZM80.05,85.71c-.21.97-.79,1.8-1.63,2.34-.84.54-1.84.71-2.8.5l-5.35-1.17c-.97-.21-1.8-.79-2.34-1.63-.54-.84-.71-1.83-.5-2.8l.27-1.21,12.62,2.77-.26,1.21Z" fill="#d6ad3d"/>
  </g>
  <g>
    <path d="M36.39,69.67c-.12-.38-.38-.7-.74-.88-.35-.18-.77-.22-1.14-.1l-15.19,4.78c-.79.25-1.23,1.09-.98,1.88l.82,2.61c.9,2.87,3.56,4.7,6.42,4.7.67,0,1.35-.1,2.01-.31h0l5.22-1.65c1.71-.54,3.11-1.71,3.94-3.31s.99-3.41.45-5.12l-.82-2.61ZM34.1,76.02c-.46.88-1.23,1.53-2.18,1.83l-5.22,1.65c-1.96.61-4.05-.48-4.67-2.43l-.37-1.18,12.32-3.88.37,1.18c.3.95.21,1.96-.25,2.84Z" fill="#d6ad3d"/>
    <path d="M47.84,58.63l-.19-.59c-.57-1.82-1.97-3.14-3.64-3.72l-2.44-7.73c-1.59-5.06-5.22-9.14-10.22-11.49-4.95-2.33-10.67-2.67-16.08-.96C4.04,37.67-2.43,49.01.85,59.41l2.48,7.88c-1.06,1.53-1.37,3.48-.8,5.29.82,2.6,3.22,4.26,5.81,4.26.6,0,1.22-.09,1.83-.28l.96-.3.31,1c1.33,4.23,4.23,7.69,8.17,9.74,2.4,1.25,5.02,1.89,7.66,1.89,1.68,0,3.36-.26,5.01-.78,8.74-2.75,13.61-12.1,10.85-20.84l-.31-1,1.25-.39c1.47-.46,2.68-1.47,3.39-2.84.71-1.37.85-2.93.39-4.41ZM16.17,36.99c4.7-1.48,9.64-1.19,13.91.82,4.23,1.99,7.3,5.42,8.64,9.67l2.1,6.67c-.14.03-.28.06-.41.11l-1.82.57-2.18-2.36c-.32-.35-.79-.52-1.26-.47-.47.05-.89.32-1.13.73-.04.06-3.51,5.89-9.03,7.21l-1.13-3.6c-.18-.57-.69-.98-1.28-1.04-.6-.06-1.17.24-1.46.77-.06.1-4.71,8.42-11.43,10.51,0,0-.01,0-.02,0,0,0,0,0,0,0-.95.29-1.95.46-2.98.46-.09,0-.17,0-.26,0l-2.69-8.53c-2.78-8.83,2.81-18.48,12.46-21.52ZM9.27,73.7c-.79.25-1.62.17-2.36-.21s-1.27-1.03-1.52-1.81c-.18-.57-.18-1.16-.03-1.71.45.05.89.08,1.32.08.83,0,1.63-.09,2.41-.24l1.13,3.59-.96.3ZM31.37,85.25c-3.47,1.09-7.15.77-10.38-.91-3.22-1.68-5.6-4.51-6.69-7.98l-2.34-7.43c4.54-1.93,8.02-5.92,9.98-8.64l.57,1.81c.21.68.88,1.12,1.59,1.04,5.59-.61,9.55-4.84,11.37-7.24l1.4,1.52,1.59,5.06,1.03,3.29s0,0,0,0l.76,2.43c2.25,7.16-1.74,14.82-8.89,17.07ZM44.8,61.65c-.34.66-.92,1.14-1.63,1.37l-1.25.39-1.23-3.92-.59-1.88,1.92-.61c1.23-.06,2.4.7,2.79,1.93l.19.59c.22.71.16,1.46-.19,2.12Z" fill="#d6ad3d"/>
  </g>
  <g>
    <path d="M14.65,25.52c-.21-.8-1.03-1.28-1.83-1.07-.8.21-1.28,1.03-1.07,1.83l.95,3.67c.18.68.78,1.12,1.45,1.12.12,0,.25-.02.38-.05.8-.21,1.28-1.03,1.07-1.83l-.95-3.67Z" fill="#d6ad3d"/>
    <path d="M6.97,29.07c-.58-.59-1.53-.6-2.12-.01-.59.58-.6,1.53-.01,2.12l2.66,2.7c.29.3.68.45,1.07.45s.76-.14,1.05-.43c.59-.58.6-1.53.01-2.12l-2.66-2.7Z" fill="#d6ad3d"/>
    <path d="M22.03,24.58c-.8-.22-1.62.25-1.84,1.05l-1.01,3.65c-.22.8.25,1.62,1.05,1.84.13.04.27.05.4.05.66,0,1.26-.44,1.45-1.1l1.01-3.65c.22-.8-.25-1.62-1.05-1.84Z" fill="#d6ad3d"/>
  </g>
  <g>
    <path d="M85.97,21.16c-.55-.62-1.5-.68-2.12-.13l-2.83,2.52c-.62.55-.68,1.5-.13,2.12.33.37.8.54,1.25.5.31-.03.61-.15.86-.37l2.83-2.52c.62-.55.68-1.5.13-2.12Z" fill="#d6ad3d"/>
    <path d="M78.24,16.16c-.79-.26-1.64.16-1.9.95l-1.2,3.59c-.26.79.16,1.64.95,1.9.2.07.41.09.61.07.58-.05,1.1-.44,1.29-1.02l1.2-3.59c.26-.79-.16-1.64-.95-1.9Z" fill="#d6ad3d"/>
    <path d="M90.02,29.43c-.17-.81-.94-1.33-1.77-1.17l-3.71.76c-.81.17-1.33.96-1.17,1.77.15.75.85,1.26,1.6,1.19.06,0,.11-.01.17-.02l3.71-.76c.81-.17,1.33-.96,1.17-1.77Z" fill="#d6ad3d"/>
  </g>
</svg>