<?xml version="1.0" encoding="UTF-8"?>
<svg id="Calque_1" xmlns="http://www.w3.org/2000/svg" version="1.1" viewBox="0 0 100 100">
  <!-- Generator: Adobe Illustrator 29.0.1, SVG Export Plug-In . SVG Version: 2.1.0 Build 192)  -->
  <path d="M89.59,16.95c-10.25-10.25-26.93-10.25-37.18,0l-2.4,2.4-2.4-2.4c-4.97-4.97-11.57-7.7-18.59-7.7s-13.63,2.73-18.59,7.7C.16,27.2.16,43.88,10.41,54.14l12.61,12.61s.02.01.03.02c1.39,1.37,3.21,2.06,5.02,2.06.05,0,.1,0,.15,0-.04,1.89.65,3.78,2.09,5.22,1.4,1.4,3.23,2.1,5.07,2.1.05,0,.1,0,.15,0,0,.05,0,.1,0,.15,0,1.92.75,3.71,2.1,5.07,1.4,1.4,3.23,2.1,5.07,2.1.05,0,.1,0,.15,0,0,.05,0,.1,0,.15,0,1.92.75,3.71,2.1,5.07,1.4,1.4,3.23,2.1,5.07,2.1s3.67-.7,5.07-2.1l8.37-8.37s0,0,.01-.01c0,0,0,0,0,0l4.04-4.04c1.35-1.35,2.1-3.15,2.1-5.07,0-.05,0-.1,0-.15,1.86.05,3.78-.66,5.21-2.09,1.35-1.35,2.1-3.15,2.1-5.07,0-.05,0-.09,0-.14,1.91.04,3.82-.71,5.21-2.1l7.47-7.47c10.25-10.25,10.25-26.93,0-37.18ZM25.83,63.9c-1.24-1.24-1.24-3.25,0-4.48l8.37-8.37c.6-.6,1.39-.93,2.24-.93s1.64.33,2.24.93c1.24,1.24,1.24,3.25,0,4.48l-8.37,8.37c-1.24,1.23-3.25,1.23-4.48,0ZM33.14,71.21c-1.24-1.24-1.24-3.25,0-4.48l8.37-8.37c.62-.62,1.43-.93,2.24-.93s1.62.31,2.24.93c1.24,1.24,1.24,3.25,0,4.48l-8.37,8.37c-1.24,1.23-3.25,1.23-4.48,0ZM40.45,78.51c-.6-.6-.93-1.39-.93-2.24s.33-1.64.93-2.24l8.37-8.37c.6-.6,1.39-.93,2.24-.93s1.64.33,2.24.93c1.24,1.24,1.24,3.25,0,4.48l-8.37,8.37c-1.24,1.23-3.25,1.24-4.48,0ZM52.24,85.82c-1.24,1.23-3.25,1.24-4.48,0-.6-.6-.93-1.39-.93-2.24s.33-1.64.93-2.24l8.37-8.37c.62-.62,1.43-.93,2.24-.93s1.62.31,2.24.93c1.24,1.24,1.24,3.25,0,4.48l-8.37,8.37ZM79.29,58.78c-1.24,1.23-3.24,1.24-4.48,0l-16.26-16.26c-.78-.78-2.05-.78-2.83,0-.39.39-.59.9-.59,1.41s.2,1.02.59,1.41l16.26,16.26c1.24,1.24,1.24,3.25,0,4.48-1.2,1.2-3.29,1.2-4.48,0l-16.26-16.26c-.78-.78-2.05-.78-2.83,0-.39.39-.59.9-.59,1.41s.2,1.02.59,1.41l16.26,16.26c1.06,1.06,1.2,2.68.45,3.9-.34-.98-.9-1.89-1.68-2.67-1.44-1.44-3.33-2.13-5.22-2.09.04-1.89-.65-3.78-2.09-5.22-1.35-1.35-3.15-2.1-5.07-2.1-.05,0-.1,0-.15,0,.04-1.88-.65-3.78-2.09-5.22-1.35-1.35-3.15-2.1-5.07-2.1-.05,0-.1,0-.15,0,.04-1.88-.65-3.78-2.09-5.22-1.35-1.35-3.15-2.1-5.07-2.1s-3.71.75-5.07,2.1l-8.37,8.37c-.81.81-1.37,1.76-1.71,2.77l-8.05-8.05c-8.69-8.69-8.69-22.83,0-31.53,8.69-8.69,22.83-8.69,31.53,0l2.4,2.4-13.02,13.02c-1.44,1.44-1.99,3.48-1.47,5.46s2,3.48,3.97,4.02c4.01,1.11,8.33-.02,11.27-2.97l8.37-8.38c.56-.56,1.48-.56,2.04,0l20.96,20.96c1.24,1.24,1.24,3.25,0,4.48ZM86.76,51.31l-2.92,2.92c-.35-1.03-.93-1.97-1.72-2.76l-20.96-20.96c-1.06-1.06-2.46-1.59-3.85-1.59s-2.79.53-3.85,1.59l-8.37,8.38c-1.92,1.92-4.75,2.67-7.37,1.94-.84-.23-1.1-.91-1.17-1.19-.07-.28-.18-1,.44-1.61l14.43-14.43s0,0,0,0,0,0,0,0l3.81-3.81c8.69-8.69,22.83-8.69,31.53,0,8.69,8.69,8.69,22.83,0,31.53Z" fill="#d6ad3d"/>
</svg>