<?xml version="1.0" encoding="UTF-8"?>
<svg id="Calque_1" xmlns="http://www.w3.org/2000/svg" version="1.1" viewBox="0 0 500 500">
  <!-- Generator: Adobe Illustrator 29.1.0, SVG Export Plug-In . SVG Version: 2.1.0 Build 142)  -->
  <defs>
    <style>
      .st0 {
        fill: #000047;
        opacity: 0;
      }
    </style>
  </defs>
  <path class="st0" d="M62.5,159.1c-15.5-14.2-45.3,7-57.8,16.2-10.6,7.8-3.4,15.1,22.2,12.9,18.9-1.7,54.1-12,35.6-29h0Z"/>
  <path class="st0" d="M499.1,266.7c-7.8-31.2-32.4-13.5-45.7-4.9-9.8,6.3-6.5,11,11.6,14.7,13.7,2.8,40.3,15.1,34.1-9.8h0Z"/>
  <path class="st0" d="M458.4,430.9c-5-2.9-11-6-14.7-9.9s-6.5-7.7-5.4-15.8c1.1-7.6,4.9-14.9,12.2-23.9,3.2-3.9,11.7-18.2-3.8-21.2-14.6-2.9-30.9,27.1-65.7,16.9-19.7-5.8-51.3-35.6-48.2-51.2,3.3-16.4,21.8-4.5,32.1,0,15.2,6.8,36.2,15,60.9,15.3,18.9.2,43.1-13.6,27.3-34.1-14.8-19.2-21.5-49.1-21.8-83.3-1.2.2-2.4.4-3.6.4-32.4.8-44.1-21.9-64.4-30.3-29.2-12.1-41.5,5.7-49.2,2.8-2.8-1.1.8-5,5.5-8.4,42.3-30.5,61.5,5.1,93,13.6,4.5,1.2,12.1,1.4,19.2,1.9,1.3-21.4,4.8-44,10.3-66.3,2.6-10.7,11.2-13.9,16.2-16.8s9.3-6.6,13-11.2c3.7-4.6,5.5-11.7,5.5-21.1s-3-18.2-9.2-23c-6.1-4.8-14.2-7.2-24.1-7.2h-144.3c-10,0-18,2.4-24,7.2-6,4.8-9,12.5-9,23s1.9,15.9,5.5,20.5c3.7,4.6,8,8.5,12.9,11.5,4.9,3.1,9.2,6.6,12.9,10.6,3.7,4,5.5,9.9,5.5,17.9v79.7h-100.9v-56.9c-5.5,2.1-13.7,4-24.7,5.2-25.1,2.7-73.8-.4-54.4-23.9,16-19.4,59.9-3.5,79.1,3.9v-20.9c-15.9-3.8-38.5-12.8-53.2-15.8-18.7-3.9-51.9,7.8-38.4-5.6,28-27.7,51.9-3.8,82.2,8.3,3.4,1.4,6.5,2.5,9.4,3.5v-28.9c0-8,1.9-13.9,5.6-17.9s8.1-7.4,13.1-10.4c5-3,9.3-6.8,13.1-11.4,3.7-4.6,5.6-11.6,5.6-20.8s-3.1-18.2-9.2-23c-6.1-4.8-14.2-7.2-24.1-7.2H61.9c-10,0-18,2.4-24.1,7.2-6.1,4.8-9.2,12.5-9.2,23s1.9,16.2,5.5,20.8c3.7,4.6,8,8.4,13,11.4s9.7,6.2,13,10.4c11.7,14.8,22.5,57.1,18.7,103.2-2.2,26.3-19.6,50.3-12.7,67.1,5.6,13.7,28.5,2.1,54.7-.4,22.4-2.2,43.7,13.6,50.3,23.5,5.2,7.8,4.3,17.6-2,19-10.2,2.3-21-9.7-42-12.5-37.3-4.8-61.4,1.1-64.2,11-3.2,11.5,25.2,50.6,5.3,74.7-3.5,4.2-16.3,11.6-21.3,14.5s-9.3,6.8-13,11.4c-3.7,4.6-5.5,11.6-5.5,20.8s3,18.2,9.2,23,14.2,7.2,24.1,7.2h144.3c10,0,18-2.4,24.1-7.2,6.1-4.8,9.2-12.5,9.2-23s-1.9-16.5-5.6-21.2c-3.7-4.7-8.1-8.6-13.1-11.5s-9.3-6.4-13.1-10.3c-3.7-3.9-5.6-9.7-5.6-17.5v-61.3h100.9v112.8c0,8.1-1.9,14.2-5.5,18-3.7,3.9-8,7.3-12.9,10.1-4.9,2.9-9.2,6.6-12.9,11.1s-5.5,11.6-5.5,21.2,3,18.2,9,23c6,4.8,14,7.2,24,7.2h144.3c10,0,18-2.4,24.1-7.2s9.2-12.5,9.2-23-1.9-16.7-5.5-21.2c-3.7-4.5-8-8.2-13-11.1h0ZM331.2,226.2c28.3-25.9,58.4,6.2,75.2,22.6,12.3,12,4.8,14.7-25.9,7.4-23.2-5.5-71.8-9.4-49.3-30h0Z"/>
</svg>