<?xml version="1.0" encoding="UTF-8"?>
<svg id="Calque_1" xmlns="http://www.w3.org/2000/svg" version="1.1" viewBox="0 0 500 500">
  <!-- Generator: Adobe Illustrator 29.0.1, SVG Export Plug-In . SVG Version: 2.1.0 Build 192)  -->
  <path d="M62.51,159.05c-15.46-14.18-45.28,6.97-57.78,16.17-10.64,7.82-3.37,15.12,22.23,12.85,18.91-1.67,54.13-11.98,35.56-29.02Z" fill="#000047"/>
  <path d="M499.09,266.69c-7.76-31.23-32.42-13.53-45.73-4.94-9.76,6.29-6.55,11.04,11.58,14.7,13.73,2.77,40.32,15.09,34.15-9.76Z" fill="#000047"/>
  <path d="M458.36,430.92c-5-2.87-11.03-6-14.73-9.89-3.7-3.89-6.54-7.73-5.4-15.79,1.07-7.59,4.9-14.9,12.18-23.94,3.16-3.92,11.71-18.17-3.83-21.23-14.65-2.89-30.86,27.14-65.67,16.85-19.7-5.82-51.28-35.59-48.16-51.22,3.28-16.42,21.78-4.54,32.15.09,15.24,6.8,36.25,15.01,60.87,15.34,18.87.25,43.07-13.63,27.31-34.09-14.77-19.18-21.52-49.08-21.79-83.3-1.16.2-2.35.35-3.62.38-32.36.76-44.12-21.91-64.42-30.3-29.24-12.09-41.48,5.74-49.18,2.76-2.79-1.08.78-5,5.54-8.43,42.27-30.48,61.51,5.11,93.04,13.55,4.47,1.2,12.15,1.4,19.19,1.89,1.3-21.45,4.84-44.02,10.3-66.31,2.63-10.73,11.21-13.92,16.21-16.79,5-2.87,9.34-6.62,13.05-11.24,3.7-4.63,5.55-11.66,5.55-21.1,0-10.55-3.05-18.23-9.16-23.04-6.11-4.81-14.16-7.22-24.15-7.22h-144.33c-9.99,0-18,2.41-24.01,7.22-6.01,4.81-9.02,12.49-9.02,23.04,0,9.07,1.85,15.91,5.55,20.54,3.7,4.63,8,8.47,12.91,11.52,4.9,3.05,9.21,6.57,12.91,10.55,3.7,3.98,5.55,9.95,5.55,17.9v79.66h-100.87v-56.92c-5.53,2.15-13.69,3.99-24.68,5.17-25.08,2.69-73.8-.35-54.41-23.88,15.96-19.37,59.89-3.47,79.09,3.91v-20.9c-15.94-3.76-38.5-12.75-53.18-15.81-18.67-3.89-51.95,7.75-38.43-5.62,28.01-27.69,51.9-3.75,82.24,8.31,3.43,1.36,6.53,2.51,9.37,3.53v-28.89c0-7.96,1.85-13.92,5.55-17.9,3.7-3.98,8.05-7.45,13.05-10.41,5-2.96,9.34-6.75,13.05-11.38,3.7-4.63,5.55-11.57,5.55-20.82,0-10.55-3.05-18.23-9.16-23.04-6.11-4.81-14.16-7.22-24.15-7.22H61.88c-9.99,0-18.04,2.41-24.15,7.22-6.11,4.81-9.16,12.49-9.16,23.04,0,9.25,1.85,16.19,5.55,20.82,3.7,4.63,8.05,8.42,13.05,11.38s9.67,6.15,13.05,10.41c11.7,14.78,22.54,57.11,18.7,103.21-2.19,26.27-19.56,50.33-12.7,67.14,5.58,13.68,28.46,2.13,54.74-.44,22.42-2.19,43.65,13.63,50.33,23.53,5.24,7.77,4.32,17.6-1.97,19.04-10.19,2.33-21.01-9.74-41.99-12.46-37.33-4.84-61.41,1.08-64.17,11.04-3.19,11.55,25.19,50.59,5.27,74.69-3.46,4.19-16.26,11.56-21.26,14.52-5,2.96-9.34,6.75-13.05,11.38-3.7,4.63-5.55,11.57-5.55,20.82,0,10.55,3.05,18.23,9.16,23.04,6.11,4.81,14.16,7.22,24.15,7.22h144.33c9.99,0,18.04-2.41,24.15-7.22,6.11-4.81,9.16-12.49,9.16-23.04,0-9.44-1.85-16.52-5.55-21.23-3.7-4.72-8.05-8.56-13.05-11.52-5-2.96-9.34-6.38-13.05-10.27-3.7-3.89-5.55-9.71-5.55-17.49v-61.34h100.87v112.78c0,8.14-1.85,14.16-5.55,18.04-3.7,3.89-8,7.26-12.91,10.13-4.9,2.87-9.21,6.57-12.91,11.1s-5.55,11.61-5.55,21.23c0,10.55,3.01,18.23,9.02,23.04,6.01,4.81,14.02,7.22,24.01,7.22h144.33c9.99,0,18.04-2.41,24.15-7.22,6.11-4.81,9.16-12.49,9.16-23.04,0-9.62-1.85-16.7-5.55-21.23-3.7-4.53-8.05-8.23-13.05-11.1ZM331.25,226.22c28.27-25.89,58.42,6.2,75.2,22.57,12.3,12,4.78,14.72-25.9,7.43-23.23-5.52-71.79-9.4-49.3-30Z" fill="#000047"/>
</svg>