<?xml version="1.0" encoding="UTF-8"?>
<svg id="Calque_1" xmlns="http://www.w3.org/2000/svg" version="1.1" viewBox="0 0 500 143.86">
  <!-- Generator: Adobe Illustrator 29.0.1, SVG Export Plug-In . SVG Version: 2.1.0 Build 192)  -->
  <g>
    <path d="M207.89,52.93c3.38,0,6.35.7,8.9,2.09s4.54,3.35,5.98,5.87,2.15,5.48,2.15,8.88-.79,6.24-2.37,8.71-3.69,4.38-6.35,5.75-5.6,2.04-8.83,2.04c-3.4,0-6.38-.7-8.94-2.1s-4.55-3.38-5.98-5.93-2.14-5.53-2.14-8.93.8-6.21,2.4-8.67,3.73-4.36,6.39-5.7,5.59-2.01,8.79-2.01ZM209.64,79.48c.51,0,.88-.27,1.09-.8s.35-1.12.41-1.77.09-1.14.09-1.49c0-1.17-.09-2.33-.28-3.49s-.42-2.3-.71-3.43c-.1-.45-.3-1.15-.58-2.1s-.64-1.95-1.04-3-.86-1.94-1.35-2.67-1.01-1.11-1.57-1.11c-.47,0-.81.27-1.03.8s-.35,1.12-.41,1.77-.09,1.13-.09,1.46c0,.55.08,1.44.25,2.66s.4,2.58.72,4.07.7,2.93,1.15,4.32.96,2.52,1.52,3.43,1.17,1.35,1.83,1.35Z" fill="#fff"/>
    <path d="M243.19,67.16v8.97c0,1.19.14,1.99.41,2.4s1.01.74,2.2.98c1.04.2,1.88.45,2.5.72s.94,1.06.94,2.35c0,.92-.28,1.62-.83,2.09s-1.28.71-2.18.71h-16.23c-.88,0-1.61-.24-2.18-.71s-.86-1.17-.86-2.09c0-.74.14-1.29.41-1.66s.59-.7.95-1,.68-.69.95-1.17.41-1.21.41-2.2v-11.15c0-.92-.16-1.61-.48-2.07s-.68-.82-1.08-1.09-.76-.57-1.08-.91-.48-.85-.48-1.52c0-.8.26-1.43.78-1.89s1.12-.82,1.8-1.09l7.68-3.04c.49-.2.99-.4,1.51-.58s1.04-.28,1.6-.28c.72,0,1.25.27,1.6.81s.59,1.17.72,1.87.23,1.33.29,1.86l.18,1.11c.06.37.11.74.15,1.11.64-1.88,1.61-3.48,2.93-4.79s3.15-1.97,5.49-1.97c1.66,0,2.97.41,3.92,1.23s1.63,1.87,2.04,3.15.61,2.64.61,4.07c0,1.33-.17,2.62-.52,3.86s-.96,2.26-1.83,3.06-2.09,1.2-3.67,1.2c-1.72,0-2.98-.27-3.76-.8s-1.3-1.19-1.52-1.97-.34-1.56-.35-2.34-.08-1.43-.2-1.97-.49-.8-1.11-.8c-.55,0-.95.38-1.2,1.15s-.4,1.59-.46,2.47-.09,1.52-.09,1.91Z" fill="#fff"/>
    <path d="M274.14,38.94v17.65c1.15-1.09,2.43-1.97,3.86-2.64s2.99-1.01,4.69-1.01c2.09,0,3.91.46,5.45,1.38s2.83,2.14,3.84,3.66,1.77,3.2,2.27,5.04.75,3.69.75,5.53c0,3.07-.59,5.96-1.78,8.67-1.19,2.7-2.92,4.89-5.21,6.56s-5.1,2.5-8.44,2.5c-1.5,0-2.86-.23-4.09-.68s-2.35-1.09-3.35-1.91c-1.54.57-3.18,1.14-4.92,1.69s-3.28.83-4.61.83c-.72,0-1.28-.23-1.67-.68s-.6-1.02-.6-1.72v-35.35c0-.92-.14-1.61-.43-2.07s-.62-.83-1.01-1.11-.73-.58-1.01-.91-.43-.82-.43-1.48c0-.84.26-1.48.77-1.92s1.12-.79,1.81-1.06l6.61-2.67c.78-.33,1.58-.61,2.4-.86s1.66-.37,2.52-.37,1.48.29,1.92.88.66,1.27.66,2.04ZM276.23,60.92c-.76,0-1.45.26-2.09.77v16.41c.33.35.7.63,1.11.85s.87.32,1.38.32c.92,0,1.66-.34,2.21-1.03s.97-1.54,1.24-2.57.46-2.05.54-3.07.12-1.86.12-2.52c0-.72-.05-1.59-.15-2.61s-.31-2.04-.63-3.04-.77-1.84-1.37-2.5-1.38-1-2.37-1Z" fill="#fff"/>
    <path d="M314.79,52.93c3.38,0,6.35.7,8.9,2.09s4.54,3.35,5.98,5.87c1.43,2.52,2.15,5.48,2.15,8.88s-.79,6.24-2.37,8.71-3.69,4.38-6.35,5.75-5.6,2.04-8.83,2.04c-3.4,0-6.38-.7-8.94-2.1s-4.55-3.38-5.98-5.93-2.14-5.53-2.14-8.93.8-6.21,2.4-8.67,3.73-4.36,6.39-5.7,5.59-2.01,8.79-2.01ZM316.54,79.48c.51,0,.88-.27,1.09-.8s.35-1.12.41-1.77.09-1.14.09-1.49c0-1.17-.09-2.33-.28-3.49s-.42-2.3-.71-3.43c-.1-.45-.3-1.15-.58-2.1s-.64-1.95-1.04-3-.86-1.94-1.35-2.67-1.01-1.11-1.57-1.11c-.47,0-.81.27-1.03.8s-.35,1.12-.41,1.77-.09,1.13-.09,1.46c0,.55.08,1.44.25,2.66s.4,2.58.72,4.07.7,2.93,1.15,4.32.96,2.52,1.52,3.43,1.17,1.35,1.83,1.35Z" fill="#fff"/>
    <path d="M347.42,86.27c-3.5,0-6.26-.81-8.28-2.44s-3.03-4.29-3.03-7.97v-13.37c0-.88-.19-1.54-.58-1.97s-.84-.78-1.35-1.06-.96-.61-1.35-1.01-.58-1.01-.58-1.83.3-1.5.89-1.98,1.29-.72,2.09-.72h1.38c.59,0,1.18-.3,1.77-.91s1.18-1.36,1.78-2.26,1.24-1.8,1.91-2.69,1.38-1.64,2.14-2.24,1.59-.91,2.49-.91c1.02,0,1.82.29,2.4.86s.86,1.37.86,2.4v5.75h6.98c.78,0,1.44.18,2,.55s.83.98.83,1.84c0,1.15-.36,2.02-1.09,2.61s-1.6.99-2.63,1.18-1.99.29-2.89.29h-3.2v12.17c0,1,.19,1.95.58,2.84s1.19,1.34,2.4,1.34c.8,0,1.48-.23,2.04-.69s1.1-.92,1.6-1.37,1.04-.68,1.61-.68c.53,0,.91.26,1.12.77s.32.97.32,1.38c0,2.07-.62,3.86-1.87,5.38-1.25,1.52-2.81,2.68-4.69,3.5s-3.75,1.23-5.64,1.23Z" fill="#fff"/>
    <path d="M376.18,86.27c-3.5,0-6.26-.81-8.28-2.44s-3.03-4.29-3.03-7.97v-13.37c0-.88-.19-1.54-.58-1.97s-.84-.78-1.35-1.06-.96-.61-1.35-1.01-.58-1.01-.58-1.83.3-1.5.89-1.98,1.29-.72,2.09-.72h1.38c.59,0,1.18-.3,1.77-.91s1.18-1.36,1.78-2.26,1.24-1.8,1.91-2.69,1.38-1.64,2.14-2.24,1.59-.91,2.49-.91c1.02,0,1.82.29,2.4.86s.86,1.37.86,2.4v5.75h6.98c.78,0,1.44.18,2,.55s.83.98.83,1.84c0,1.15-.36,2.02-1.09,2.61s-1.6.99-2.63,1.18-1.99.29-2.89.29h-3.2v12.17c0,1,.19,1.95.58,2.84s1.19,1.34,2.4,1.34c.8,0,1.48-.23,2.04-.69s1.1-.92,1.6-1.37,1.04-.68,1.61-.68c.53,0,.91.26,1.12.77s.32.97.32,1.38c0,2.07-.62,3.86-1.87,5.38-1.25,1.52-2.81,2.68-4.69,3.5s-3.75,1.23-5.64,1.23Z" fill="#fff"/>
    <path d="M420.67,65.07c0,1.82-.54,3.21-1.61,4.15s-2.49,1.41-4.26,1.41h-12.38c.47,1.76,1.31,3.24,2.52,4.44s2.95,1.8,5.22,1.8c.9,0,1.8-.19,2.69-.57s1.73-.82,2.52-1.34,1.48-.96,2.07-1.34,1.04-.57,1.35-.57c.59,0,1.02.21,1.29.63s.4.9.4,1.43c0,1.86-.44,3.5-1.31,4.9s-2.02,2.57-3.44,3.49-2.98,1.61-4.67,2.07-3.35.69-4.99.69c-3.22,0-6.05-.67-8.51-2s-4.38-3.2-5.76-5.61-2.07-5.24-2.07-8.5c0-3.48.67-6.51,2.01-9.1s3.27-4.58,5.79-6.01,5.54-2.14,9.07-2.14c2.44,0,4.73.46,6.87,1.38s3.88,2.28,5.21,4.09,2,4.03,2,6.67ZM401.87,65.9v.68h3.2c.78,0,1.31-.18,1.6-.54s.43-.91.43-1.64c0-.49-.06-1.14-.18-1.94s-.36-1.52-.72-2.15-.88-.95-1.55-.95c-.61,0-1.11.25-1.48.75s-.65,1.13-.83,1.87-.31,1.48-.37,2.2-.09,1.29-.09,1.72Z" fill="#fff"/>
    <path d="M433.84,86.27c-1.95,0-3.57-.5-4.87-1.49s-2.27-2.29-2.9-3.89-.95-3.28-.95-5.04v-10.45c0-.76-.06-1.3-.18-1.61s-.47-.73-1.04-1.24c-.45-.41-.88-.79-1.28-1.15s-.6-.89-.6-1.58c0-.8.26-1.43.78-1.89s1.12-.82,1.8-1.09l6.76-2.67c.8-.33,1.6-.61,2.41-.86s1.65-.37,2.54-.37,1.49.29,1.94.88.68,1.27.68,2.04v16.69c0,.57.07,1.19.2,1.84s.39,1.21.78,1.67.95.69,1.69.69,1.42-.17,2-.51,1.1-.75,1.57-1.24v-9.59c0-.78-.07-1.35-.2-1.71s-.52-.78-1.15-1.28c-.47-.37-.88-.73-1.23-1.08s-.52-.86-.52-1.54c0-.8.26-1.43.78-1.89s1.12-.82,1.8-1.09l6.76-2.67c.8-.33,1.6-.61,2.41-.86s1.65-.37,2.54-.37,1.49.29,1.95.86.69,1.26.69,2.06v20.28c0,.57.03,1.14.08,1.71s.28,1.08.69,1.55c.51.55.96,1.01,1.35,1.38s.58.97.58,1.81c0,.92-.28,1.62-.83,2.09s-1.28.71-2.18.71h-7.01c-1.56,0-2.92-.58-4.1-1.75s-1.77-2.52-1.77-4.06c-1.13,1.09-2.36,2.14-3.69,3.17s-2.7,1.87-4.1,2.54-2.79,1-4.16,1Z" fill="#fff"/>
    <path d="M483.74,60.25c0,.27.07.51.22.74l.43.68c.82,1.13,1.67,2.27,2.55,3.44l1.35-1.84c.23-.29.44-.6.63-.95s.29-.72.29-1.11c0-.53-.22-.99-.65-1.38s-.87-.82-1.31-1.29-.66-1.09-.66-1.84c0-.9.28-1.59.85-2.06s1.28-.71,2.14-.71h7.28c.88,0,1.6.23,2.17.69s.85,1.15.85,2.07c0,.78-.18,1.37-.54,1.78s-.81.85-1.37,1.32c-1.56,1.31-3.02,2.73-4.38,4.26s-2.67,3.1-3.92,4.72c1.52,1.97,3.04,3.92,4.58,5.87s3.08,3.88,4.64,5.81c.27.33.52.66.75.98s.35.72.35,1.17c0,.9-.28,1.59-.83,2.07s-1.27.72-2.15.72h-15.24c-.88,0-1.6-.24-2.15-.72s-.83-1.17-.83-2.07c0-.66.2-1.35.6-2.07s.6-1.13.6-1.21-.33-.62-1-1.61-1.49-2.2-2.47-3.61c-.29.49-.57.95-.86,1.38v.03c-.29.37-.56.76-.83,1.17s-.4.86-.4,1.35.22.89.66,1.26.88.8,1.31,1.31.65,1.17.65,2.01c0,.9-.28,1.59-.83,2.07s-1.27.72-2.15.72h-7.56c-.86,0-1.58-.25-2.15-.74s-.86-1.18-.86-2.06.24-1.55.71-2,1.02-.91,1.66-1.38c1.7-1.25,3.15-2.67,4.35-4.27s2.34-3.28,3.43-5.04c-1.23-1.72-2.35-3.29-3.36-4.72s-1.66-2.3-1.95-2.63c-.45-.55-.93-1.07-1.44-1.55s-1.03-.96-1.57-1.43c-.47-.43-.85-.85-1.14-1.26s-.43-.95-.43-1.63c0-.92.28-1.61.85-2.07s1.29-.69,2.17-.69h15.15c.88,0,1.6.23,2.17.69s.85,1.15.85,2.07c0,.7-.19,1.32-.58,1.87s-.58,1.12-.58,1.69Z" fill="#fff"/>
  </g>
  <g>
    <g>
      <path d="M154.88,93.1c-.13-.31-.32-.56-.57-.74-.26-.18-.54-.27-.85-.27-.31-.04-.6.04-.88.22-.27.18-.48.45-.63.79l-6.87,16.59c-.05.16-.08.33-.08.49,0,.37.11.67.33.92.22.25.56.37,1.01.37.29,0,.56-.09.79-.26.24-.17.42-.41.55-.73l1.52-3.61h8.29l1.53,3.59c.13.31.31.56.56.74.25.18.52.27.81.27.37,0,.69-.13.99-.4s.44-.63.44-1.08c0-.18-.04-.38-.11-.6l-6.82-16.29ZM150.42,103.97l2.9-6.9,2.94,6.9h-5.84Z" fill="#fff"/>
      <path d="M172.29,104.15c-.47-.32-.98-.58-1.53-.78s-1.11-.37-1.66-.52c-.57-.16-1.09-.33-1.57-.49-.48-.16-.87-.37-1.15-.63s-.42-.6-.42-1.04c0-.47.12-.83.37-1.07.25-.24.54-.4.89-.48s.68-.12.99-.12c.68,0,1.28.12,1.82.37.54.25.97.57,1.3.97.22.22.5.34.83.36.34.02.63-.07.89-.27.35-.27.51-.59.48-.94s-.14-.66-.34-.92c-.38-.49-.85-.89-1.41-1.19s-1.14-.52-1.75-.64c-.61-.13-1.19-.19-1.74-.19-.89,0-1.74.17-2.53.51-.79.34-1.44.82-1.94,1.45-.5.63-.75,1.39-.75,2.29,0,.79.15,1.43.46,1.94s.71.93,1.19,1.25c.48.32,1.02.58,1.62.79.59.21,1.17.4,1.74.56.57.15,1.08.3,1.53.46.46.16.83.37,1.11.63.28.26.42.6.42,1.04,0,.48-.13.84-.4,1.1-.26.26-.57.42-.93.51-.36.08-.69.12-1,.12-.9,0-1.64-.15-2.25-.45-.6-.3-1.16-.73-1.67-1.27-.29-.29-.59-.45-.9-.48-.31-.03-.59.05-.85.23-.42.26-.64.57-.66.94s.06.68.25.92c.71.95,1.59,1.61,2.64,1.99,1.05.37,2.1.56,3.16.56.88,0,1.72-.17,2.52-.51.8-.34,1.47-.83,2-1.46s.79-1.41.79-2.33c0-.78-.14-1.43-.42-1.94-.28-.51-.66-.93-1.12-1.25Z" fill="#fff"/>
      <path d="M185.1,104.15c-.46-.32-.98-.58-1.53-.78-.56-.2-1.11-.37-1.66-.52-.57-.16-1.09-.33-1.57-.49-.48-.16-.87-.37-1.15-.63-.28-.26-.42-.6-.42-1.04,0-.47.12-.83.37-1.07s.54-.4.89-.48.68-.12.99-.12c.67,0,1.28.12,1.82.37.54.25.97.57,1.3.97.22.22.5.34.84.36.34.02.63-.07.89-.27.35-.27.51-.59.48-.94s-.14-.66-.34-.92c-.38-.49-.85-.89-1.41-1.19-.56-.3-1.14-.52-1.75-.64-.61-.13-1.19-.19-1.74-.19-.9,0-1.74.17-2.53.51-.79.34-1.44.82-1.94,1.45-.5.63-.75,1.39-.75,2.29,0,.79.15,1.43.47,1.94.31.51.71.93,1.19,1.25.48.32,1.02.58,1.62.79.59.21,1.17.4,1.74.56.57.15,1.08.3,1.53.46.46.16.83.37,1.11.63.28.26.42.6.42,1.04,0,.48-.13.84-.4,1.1-.26.26-.57.42-.93.51s-.69.12-1,.12c-.89,0-1.64-.15-2.25-.45s-1.16-.73-1.67-1.27c-.29-.29-.59-.45-.9-.48-.31-.03-.59.05-.85.23-.42.26-.64.57-.66.94-.02.37.06.68.25.92.71.95,1.59,1.61,2.64,1.99,1.05.37,2.1.56,3.16.56.88,0,1.72-.17,2.52-.51.8-.34,1.47-.83,2-1.46.53-.64.79-1.41.79-2.33,0-.78-.14-1.43-.42-1.94-.28-.51-.66-.93-1.12-1.25Z" fill="#fff"/>
      <path d="M199.34,97.51c-1.1-.64-2.35-.96-3.74-.96s-2.61.32-3.72.96c-1.11.64-2,1.53-2.66,2.67s-.99,2.45-.99,3.93.33,2.78.99,3.92c.66,1.13,1.54,2.02,2.66,2.66,1.11.64,2.35.96,3.72.96s2.63-.32,3.74-.96c1.1-.64,1.99-1.52,2.64-2.66.66-1.13.99-2.44.99-3.92s-.33-2.79-.99-3.93-1.54-2.03-2.64-2.67ZM199.38,106.6c-.38.71-.9,1.27-1.56,1.67-.66.4-1.4.6-2.22.6s-1.53-.2-2.19-.6c-.66-.4-1.18-.96-1.56-1.67-.38-.71-.57-1.54-.57-2.49s.19-1.81.57-2.52c.38-.71.9-1.27,1.56-1.67s1.39-.6,2.19-.6,1.56.2,2.22.6,1.18.96,1.56,1.67c.38.71.57,1.55.57,2.52s-.19,1.78-.57,2.49Z" fill="#fff"/>
      <path d="M215.89,107.75c-.38,0-.67.09-.86.26-.19.17-.42.33-.7.48-.22.13-.5.22-.85.29-.35.06-.77.1-1.26.1-.86,0-1.62-.21-2.29-.63-.67-.42-1.18-.99-1.55-1.7s-.55-1.52-.55-2.44.18-1.75.55-2.46.89-1.28,1.56-1.7c.67-.42,1.49-.63,2.44-.63.24,0,.55.03.93.1.38.06.68.15.88.26.2.11.37.23.52.37.15.14.31.25.49.33s.42.12.71.12c.38,0,.67-.15.88-.44.2-.29.3-.61.3-.96,0-.51-.21-.96-.64-1.34-.43-.38-1.03-.68-1.79-.89-.77-.21-1.66-.31-2.68-.31-1.41,0-2.65.32-3.72.97-1.08.65-1.92,1.54-2.53,2.67-.61,1.13-.92,2.44-.92,3.91s.29,2.68.86,3.82c.57,1.14,1.39,2.04,2.45,2.71,1.06.67,2.3,1,3.72,1,.97,0,1.86-.12,2.68-.36.82-.24,1.48-.54,1.97-.9.49-.37.74-.77.74-1.2,0-.4-.11-.74-.34-1.01-.23-.27-.56-.41-1-.41Z" fill="#fff"/>
      <path d="M220.39,96.77c-.44,0-.8.15-1.08.45s-.42.66-.42,1.08v11.53c0,.44.14.8.42,1.09s.64.44,1.08.44.8-.15,1.08-.44.42-.66.42-1.09v-11.53c0-.42-.14-.78-.42-1.08s-.64-.45-1.08-.45Z" fill="#fff"/>
      <path d="M220.42,91.9c-.55,0-.96.09-1.23.27-.27.18-.41.53-.41,1.04v.46c0,.48.12.81.37,1.01.25.2.66.3,1.25.3s.98-.1,1.25-.29.4-.53.4-1.03v-.46c0-.49-.12-.84-.37-1.03-.25-.19-.66-.29-1.25-.29Z" fill="#fff"/>
      <path d="M236.77,96.61c-.44,0-.8.15-1.08.44-.28.29-.42.66-.42,1.09v.26c-.18-.19-.39-.38-.62-.56-.48-.38-1.06-.69-1.73-.93-.67-.24-1.39-.36-2.18-.36-1.22,0-2.33.32-3.33.96-.99.64-1.79,1.52-2.38,2.66-.59,1.13-.89,2.44-.89,3.92s.3,2.78.89,3.91c.59,1.13,1.4,2.02,2.41,2.67,1.01.65,2.15.97,3.41.97.69,0,1.35-.12,1.96-.36.61-.24,1.14-.53,1.59-.88.35-.27.63-.56.86-.85v.28c0,.44.14.8.42,1.09.28.29.64.44,1.08.44s.8-.15,1.08-.44c.28-.29.42-.66.42-1.09v-11.69c0-.46-.14-.83-.42-1.11-.28-.28-.64-.42-1.08-.42ZM234.87,106.53c-.36.72-.84,1.29-1.46,1.71-.62.42-1.35.63-2.19.63s-1.52-.21-2.15-.63c-.63-.42-1.12-.99-1.48-1.71s-.53-1.54-.53-2.45.18-1.73.53-2.45c.36-.72.85-1.29,1.48-1.7.63-.41,1.35-.62,2.15-.62s1.57.21,2.19.63c.62.42,1.11.99,1.46,1.71.36.72.53,1.53.53,2.42s-.18,1.73-.53,2.45Z" fill="#fff"/>
      <path d="M248.02,99.84c.4,0,.74-.13,1.01-.4.27-.26.41-.59.41-.97s-.14-.73-.41-1c-.27-.26-.61-.4-1.01-.4h-2.08v-1.97c0-.44-.14-.8-.41-1.1-.27-.29-.63-.44-1.07-.44s-.8.15-1.1.44-.44.66-.44,1.1v1.97h-1.37c-.4,0-.74.13-1.01.38-.27.26-.41.58-.41.96,0,.4.14.74.41,1.01s.61.41,1.01.41h1.37v7.83c0,.88.14,1.57.41,2.07.27.5.61.87,1,1.11.39.24.81.38,1.26.44s.84.08,1.19.08c.6,0,1.16-.15,1.67-.45s.77-.69.77-1.16c0-.38-.1-.68-.29-.9-.19-.22-.42-.33-.67-.33-.22,0-.42.04-.59.11-.17.07-.36.11-.56.11s-.39-.04-.58-.11c-.18-.07-.33-.2-.44-.37-.11-.17-.16-.41-.16-.72v-7.69h2.08Z" fill="#fff"/>
      <path d="M253.27,91.9c-.55,0-.96.09-1.23.27-.27.18-.41.53-.41,1.04v.46c0,.48.12.81.37,1.01.25.2.66.3,1.25.3s.98-.1,1.25-.29.4-.53.4-1.03v-.46c0-.49-.12-.84-.37-1.03-.25-.19-.66-.29-1.25-.29Z" fill="#fff"/>
      <path d="M253.24,96.77c-.44,0-.8.15-1.08.45s-.42.66-.42,1.08v11.53c0,.44.14.8.42,1.09s.64.44,1.08.44.8-.15,1.08-.44.42-.66.42-1.09v-11.53c0-.42-.14-.78-.42-1.08s-.64-.45-1.08-.45Z" fill="#fff"/>
      <path d="M268.04,97.51c-1.1-.64-2.35-.96-3.74-.96s-2.61.32-3.72.96c-1.11.64-2,1.53-2.66,2.67s-.99,2.45-.99,3.93.33,2.78.99,3.92c.66,1.13,1.54,2.02,2.66,2.66,1.11.64,2.35.96,3.72.96s2.63-.32,3.74-.96c1.1-.64,1.99-1.52,2.64-2.66.66-1.13.99-2.44.99-3.92s-.33-2.79-.99-3.93-1.54-2.03-2.64-2.67ZM268.08,106.6c-.38.71-.9,1.27-1.56,1.67-.66.4-1.4.6-2.22.6s-1.53-.2-2.19-.6c-.66-.4-1.18-.96-1.56-1.67-.38-.71-.57-1.54-.57-2.49s.19-1.81.57-2.52c.38-.71.9-1.27,1.56-1.67s1.39-.6,2.19-.6,1.56.2,2.22.6,1.18.96,1.56,1.67c.38.71.57,1.55.57,2.52s-.19,1.78-.57,2.49Z" fill="#fff"/>
      <path d="M284.84,97.37c-.7-.55-1.72-.82-3.05-.82-.62,0-1.21.1-1.77.3-.56.2-1.05.47-1.49.79-.44.33-.81.68-1.12,1.07-.09.12-.17.23-.25.35v-.7c0-.42-.14-.78-.42-1.08-.28-.3-.64-.45-1.08-.45s-.78.15-1.07.45c-.29.3-.44.66-.44,1.08v11.47c0,.44.14.8.42,1.09.28.29.64.44,1.08.44s.8-.15,1.08-.44c.28-.29.42-.66.42-1.09v-7.17c0-.62.15-1.18.45-1.68.3-.5.72-.9,1.25-1.2s1.17-.45,1.92-.45,1.36.15,1.78.45c.42.3.72.7.89,1.2.17.5.26,1.06.26,1.68v7.17c0,.44.14.8.42,1.09.28.29.64.44,1.08.44s.8-.15,1.08-.44.42-.66.42-1.09v-7.17c0-1.13-.14-2.16-.41-3.08s-.76-1.66-1.47-2.2Z" fill="#fff"/>
      <path d="M303.94,99.84c.4,0,.74-.13,1.01-.4.27-.26.41-.59.41-.97s-.14-.73-.41-1c-.27-.26-.61-.4-1.01-.4h-2.08v-1.97c0-.44-.14-.8-.41-1.1-.27-.29-.63-.44-1.07-.44s-.8.15-1.1.44-.44.66-.44,1.1v1.97h-1.37c-.4,0-.74.13-1.01.38-.27.26-.41.58-.41.96,0,.4.14.74.41,1.01s.61.41,1.01.41h1.37v7.83c0,.88.14,1.57.41,2.07.27.5.61.87,1,1.11.39.24.81.38,1.26.44s.84.08,1.19.08c.6,0,1.16-.15,1.67-.45s.77-.69.77-1.16c0-.38-.1-.68-.29-.9-.19-.22-.42-.33-.67-.33-.22,0-.42.04-.59.11-.17.07-.36.11-.56.11s-.39-.04-.58-.11c-.18-.07-.33-.2-.44-.37-.11-.17-.16-.41-.16-.72v-7.69h2.08Z" fill="#fff"/>
      <path d="M318.27,97.41c-.68-.56-1.67-.83-2.97-.83-.6,0-1.17.1-1.7.3-.53.2-1.01.47-1.45.79-.44.33-.8.68-1.1,1.07-.08.11-.15.22-.22.32v-6.43c0-.44-.14-.8-.42-1.09s-.64-.44-1.08-.44-.78.15-1.07.44-.44.66-.44,1.09v17.19c0,.44.14.8.42,1.09s.64.44,1.08.44.8-.15,1.08-.44.42-.66.42-1.09v-7.12c0-.64.14-1.21.42-1.71.28-.5.68-.9,1.2-1.2s1.14-.45,1.85-.45,1.3.15,1.7.45c.4.3.68.7.85,1.2.16.5.25,1.07.25,1.71v7.12c0,.44.14.8.42,1.09s.64.44,1.08.44.8-.15,1.08-.44.42-.66.42-1.09v-7.12c0-1.13-.14-2.16-.41-3.08s-.75-1.66-1.44-2.22Z" fill="#fff"/>
      <path d="M329.42,95.87c.2,0,.41-.03.62-.1.21-.06.4-.19.56-.37l2.08-2.27c.15-.18.26-.37.34-.56.08-.19.12-.37.12-.53.02-.36-.08-.67-.3-.92-.22-.25-.57-.37-1.04-.37-.31,0-.58.1-.82.3-.24.2-.44.44-.6.71l-1.59,2.77c-.11.18-.16.35-.16.49-.02.27.08.48.29.63.21.15.38.22.51.22Z" fill="#fff"/>
      <path d="M334.2,98.62c-.63-.65-1.35-1.15-2.16-1.52-.81-.36-1.67-.55-2.59-.55-1.19,0-2.31.31-3.38.92-1.07.61-1.93,1.49-2.59,2.64s-.99,2.54-.99,4.16c0,1.41.31,2.67.92,3.78.61,1.11,1.48,1.99,2.61,2.63,1.13.64,2.46.96,4,.96.93,0,1.82-.16,2.68-.49s1.53-.72,2.03-1.18c.46-.35.68-.75.68-1.2,0-.33-.12-.62-.37-.88s-.55-.38-.92-.38c-.27,0-.57.08-.88.25-.2.15-.44.31-.71.49-.27.18-.62.33-1.04.45-.42.12-.96.18-1.62.18-.8,0-1.54-.19-2.22-.58-.68-.38-1.22-.93-1.64-1.64-.28-.47-.46-1.01-.55-1.62h9.26c.4,0,.75-.13,1.05-.38s.46-.58.48-.99c0-.99-.19-1.91-.56-2.78-.37-.87-.88-1.62-1.51-2.27ZM326.6,100.34c.37-.37.79-.64,1.29-.79.49-.15,1.01-.23,1.56-.23.58,0,1.14.13,1.67.38.53.26.98.61,1.34,1.07.37.46.57.97.6,1.53v.22h-7.52c.05-.25.11-.5.19-.71.22-.6.51-1.09.88-1.47Z" fill="#fff"/>
      <path d="M342.51,95.07c.31,0,.54-.06.68-.18.15-.12.33-.27.55-.45l1.65-1.35,1.56,1.35c.24.18.43.33.57.44.15.11.37.16.68.16.24,0,.42-.06.56-.19.14-.13.21-.27.21-.44,0-.13-.02-.25-.05-.36s-.13-.26-.27-.44l-1.31-1.75c-.18-.29-.37-.49-.57-.59-.2-.1-.48-.15-.82-.15h-.88c-.66,0-1.18.25-1.56.74l-1.45,1.78c-.13.16-.21.3-.25.41-.04.11-.05.23-.05.36,0,.16.07.31.22.45.15.14.33.21.55.21Z" fill="#fff"/>
      <path d="M350.72,96.61c-.44,0-.8.15-1.08.44s-.42.66-.42,1.09v.26c-.18-.19-.39-.38-.62-.56-.48-.38-1.06-.69-1.72-.93-.67-.24-1.39-.36-2.18-.36-1.22,0-2.33.32-3.33.96-.99.64-1.79,1.52-2.38,2.66-.59,1.13-.89,2.44-.89,3.92s.3,2.78.89,3.91c.59,1.13,1.4,2.02,2.41,2.67s2.15.97,3.41.97c.69,0,1.35-.12,1.96-.36.61-.24,1.14-.53,1.59-.88.35-.27.63-.56.86-.85v.27c0,.44.14.8.42,1.09s.64.44,1.08.44.8-.15,1.08-.44.42-.66.42-1.09v-11.69c0-.46-.14-.83-.42-1.11s-.64-.42-1.08-.42ZM348.82,106.53c-.36.72-.84,1.29-1.47,1.71-.62.42-1.35.63-2.19.63s-1.52-.21-2.15-.63-1.12-.99-1.48-1.71c-.36-.72-.53-1.54-.53-2.45s.18-1.73.53-2.45c.36-.72.85-1.29,1.48-1.7.63-.41,1.35-.62,2.15-.62s1.57.21,2.19.63,1.11.99,1.47,1.71c.36.72.53,1.53.53,2.42s-.18,1.73-.53,2.45Z" fill="#fff"/>
      <path d="M361.97,99.84c.4,0,.74-.13,1.01-.4s.41-.59.41-.97-.14-.73-.41-1c-.27-.26-.61-.4-1.01-.4h-2.08v-1.97c0-.44-.14-.8-.41-1.1s-.63-.44-1.07-.44-.8.15-1.09.44-.44.66-.44,1.1v1.97h-1.37c-.4,0-.74.13-1.01.38-.27.26-.41.58-.41.96,0,.4.14.74.41,1.01s.61.41,1.01.41h1.37v7.83c0,.88.14,1.57.41,2.07.27.5.61.87,1,1.11.39.24.81.38,1.26.44.45.05.84.08,1.19.08.6,0,1.16-.15,1.67-.45.51-.3.77-.69.77-1.16,0-.38-.1-.68-.29-.9-.19-.22-.41-.33-.67-.33-.22,0-.41.04-.59.11-.17.07-.36.11-.56.11s-.39-.04-.57-.11c-.18-.07-.33-.2-.44-.37-.11-.17-.16-.41-.16-.72v-7.69h2.08Z" fill="#fff"/>
      <path d="M374.61,96.96c-.37-.27-.8-.41-1.31-.41s-1.01.07-1.49.22c-.48.15-.93.36-1.34.63-.41.27-.77.6-1.08.98-.2.25-.37.53-.52.82v-.85c0-.42-.14-.78-.42-1.08s-.64-.45-1.08-.45-.78.15-1.07.45-.44.66-.44,1.08v11.47c0,.44.14.8.42,1.09.28.29.64.44,1.08.44s.8-.15,1.08-.44.42-.66.42-1.09v-6.54c0-.64.1-1.21.29-1.73.19-.51.44-.94.74-1.3.3-.36.63-.63,1-.81.37-.18.73-.27,1.1-.27s.66.06.93.18c.27.12.57.18.88.18.35,0,.66-.12.94-.36s.42-.63.42-1.18c0-.42-.18-.77-.55-1.04Z" fill="#fff"/>
      <path d="M388.35,96.61c-.44,0-.8.15-1.08.44s-.42.66-.42,1.09v.26c-.18-.19-.39-.38-.62-.56-.48-.38-1.06-.69-1.73-.93-.67-.24-1.39-.36-2.18-.36-1.22,0-2.33.32-3.33.96-.99.64-1.79,1.52-2.38,2.66-.59,1.13-.89,2.44-.89,3.92s.3,2.78.89,3.91c.59,1.13,1.4,2.02,2.41,2.67s2.15.97,3.41.97c.69,0,1.35-.12,1.96-.36.61-.24,1.14-.53,1.59-.88.35-.27.63-.56.86-.85v.28c0,.44.14.8.42,1.09s.64.44,1.08.44.8-.15,1.08-.44c.28-.29.42-.66.42-1.09v-11.69c0-.46-.14-.83-.42-1.11-.28-.28-.64-.42-1.08-.42ZM386.45,106.53c-.36.72-.84,1.29-1.47,1.71-.62.42-1.35.63-2.19.63s-1.52-.21-2.15-.63c-.63-.42-1.12-.99-1.48-1.71s-.53-1.54-.53-2.45.18-1.73.53-2.45c.36-.72.85-1.29,1.48-1.7.63-.41,1.35-.62,2.15-.62s1.57.21,2.19.63c.62.42,1.11.99,1.47,1.71.36.72.53,1.53.53,2.42s-.18,1.73-.53,2.45Z" fill="#fff"/>
      <path d="M394.7,91.1c-.44,0-.8.15-1.1.44s-.44.66-.44,1.09v17.19c0,.44.14.8.42,1.09s.63.44,1.05.44.8-.15,1.09-.44.44-.66.44-1.09v-17.19c0-.44-.14-.8-.42-1.09s-.63-.44-1.05-.44Z" fill="#fff"/>
      <path d="M412.11,104.65c.3-.26.46-.58.48-.99,0-.99-.19-1.91-.56-2.78s-.88-1.62-1.51-2.27-1.35-1.15-2.16-1.52c-.81-.36-1.67-.55-2.59-.55-1.19,0-2.31.31-3.38.92-1.07.61-1.93,1.49-2.59,2.64s-.99,2.54-.99,4.16c0,1.41.31,2.67.92,3.78.61,1.11,1.48,1.99,2.61,2.63,1.13.64,2.46.96,4,.96.93,0,1.82-.16,2.68-.49.86-.33,1.53-.72,2.03-1.18.46-.35.68-.75.68-1.2,0-.33-.12-.62-.37-.88s-.55-.38-.92-.38c-.27,0-.57.08-.88.25-.2.15-.44.31-.71.49-.27.18-.62.33-1.04.45-.42.12-.96.18-1.62.18-.8,0-1.54-.19-2.22-.58-.68-.38-1.22-.93-1.64-1.64-.28-.47-.46-1.01-.55-1.62h9.26c.4,0,.75-.13,1.05-.38ZM402.93,100.34c.36-.37.79-.64,1.29-.79.49-.15,1.01-.23,1.56-.23.58,0,1.14.13,1.67.38.53.26.98.61,1.34,1.07.37.46.57.97.6,1.53v.22h-7.52c.05-.25.11-.5.19-.71.22-.6.51-1.09.88-1.47Z" fill="#fff"/>
    </g>
    <g>
      <path d="M171.82,122.78c-.63-.65-1.35-1.15-2.16-1.52-.81-.36-1.67-.55-2.59-.55-1.19,0-2.31.31-3.38.92-1.07.61-1.93,1.49-2.59,2.64s-.99,2.54-.99,4.16c0,1.41.31,2.67.92,3.78.61,1.11,1.48,1.99,2.61,2.63,1.13.64,2.46.96,4,.96.93,0,1.82-.16,2.68-.49.86-.33,1.53-.72,2.03-1.18.46-.35.68-.75.68-1.2,0-.33-.12-.62-.37-.88s-.55-.38-.92-.38c-.27,0-.57.08-.88.25-.2.15-.44.31-.71.49-.27.18-.62.33-1.04.45-.42.12-.96.18-1.62.18-.8,0-1.54-.19-2.22-.58-.68-.38-1.22-.93-1.64-1.64-.28-.47-.46-1.01-.55-1.62h9.26c.4,0,.75-.13,1.05-.38s.46-.58.48-.99c0-.99-.19-1.91-.56-2.78s-.88-1.62-1.51-2.27ZM164.22,124.5c.36-.37.79-.64,1.29-.79.49-.15,1.01-.23,1.56-.23.58,0,1.14.13,1.67.38.53.26.98.61,1.34,1.07.37.46.57.97.6,1.53v.22h-7.52c.05-.25.11-.5.19-.71.22-.6.51-1.09.88-1.47Z" fill="#fff"/>
      <path d="M182.4,124c.4,0,.74-.13,1.01-.4s.41-.59.41-.97-.14-.73-.41-1c-.27-.26-.61-.4-1.01-.4h-2.08v-1.97c0-.44-.14-.8-.41-1.1s-.63-.44-1.07-.44-.8.15-1.09.44c-.29.29-.44.66-.44,1.1v1.97h-1.37c-.4,0-.74.13-1.01.38-.27.26-.41.58-.41.96,0,.4.14.74.41,1.01.27.27.61.41,1.01.41h1.37v7.83c0,.88.14,1.57.41,2.07.27.5.61.87,1,1.11.39.24.81.38,1.26.44.45.05.84.08,1.19.08.6,0,1.16-.15,1.67-.45.51-.3.77-.69.77-1.16,0-.38-.1-.68-.29-.9-.19-.22-.42-.33-.67-.33-.22,0-.42.04-.59.11-.17.07-.36.11-.56.11s-.39-.04-.57-.11c-.18-.07-.33-.2-.44-.37-.11-.17-.16-.41-.16-.72v-7.69h2.08Z" fill="#fff"/>
      <path d="M207.42,131.91c-.38,0-.67.09-.86.26-.19.17-.42.33-.7.48-.22.13-.5.22-.85.29s-.77.1-1.26.1c-.86,0-1.62-.21-2.29-.63s-1.18-.99-1.55-1.7-.55-1.52-.55-2.44.18-1.75.55-2.46.89-1.28,1.56-1.7,1.49-.63,2.44-.63c.24,0,.55.03.93.1.38.06.67.15.88.26.2.11.37.23.52.37.15.14.31.25.49.33.18.08.42.12.71.12.38,0,.67-.15.88-.44.2-.29.3-.61.3-.96,0-.51-.22-.96-.64-1.34-.43-.38-1.03-.68-1.79-.89-.77-.21-1.66-.31-2.68-.31-1.41,0-2.65.32-3.72.97-1.08.65-1.92,1.54-2.53,2.67-.61,1.13-.92,2.44-.92,3.91s.29,2.68.86,3.82c.57,1.14,1.39,2.04,2.45,2.71,1.06.67,2.3,1,3.72,1,.97,0,1.86-.12,2.68-.36.82-.24,1.48-.54,1.97-.9.49-.37.74-.77.74-1.2,0-.4-.11-.74-.34-1.01-.23-.27-.56-.41-1-.41Z" fill="#fff"/>
      <path d="M221.4,120.98c-.44,0-.8.15-1.08.45-.28.3-.42.66-.42,1.08v7.09c0,1.15-.26,2-.79,2.56-.53.56-1.31.84-2.35.84s-1.82-.28-2.35-.84c-.53-.56-.79-1.41-.79-2.56v-7.09c0-.42-.14-.78-.42-1.08s-.64-.45-1.08-.45-.78.15-1.07.45-.44.66-.44,1.08v7.09c0,1.92.53,3.43,1.59,4.53,1.06,1.1,2.58,1.66,4.57,1.66s3.49-.55,4.56-1.66c1.07-1.1,1.6-2.61,1.6-4.53v-7.09c0-.42-.14-.78-.42-1.08s-.64-.45-1.08-.45Z" fill="#fff"/>
      <path d="M227.72,115.26c-.44,0-.8.15-1.1.44s-.44.66-.44,1.09v17.19c0,.44.14.8.42,1.09s.63.44,1.05.44.8-.15,1.09-.44.44-.66.44-1.09v-17.19c0-.44-.14-.8-.42-1.09s-.63-.44-1.05-.44Z" fill="#fff"/>
      <path d="M239.1,124c.4,0,.74-.13,1.01-.4s.41-.59.41-.97-.14-.73-.41-1c-.27-.26-.61-.4-1.01-.4h-2.08v-1.97c0-.44-.14-.8-.41-1.1s-.63-.44-1.07-.44-.8.15-1.09.44c-.29.29-.44.66-.44,1.1v1.97h-1.37c-.4,0-.74.13-1.01.38-.27.26-.41.58-.41.96,0,.4.14.74.41,1.01.27.27.61.41,1.01.41h1.37v7.83c0,.88.14,1.57.41,2.07.27.5.61.87,1,1.11.39.24.81.38,1.26.44.45.05.84.08,1.19.08.6,0,1.16-.15,1.67-.45.51-.3.77-.69.77-1.16,0-.38-.1-.68-.29-.9-.19-.22-.42-.33-.67-.33-.22,0-.42.04-.59.11-.17.07-.36.11-.56.11s-.39-.04-.57-.11c-.18-.07-.33-.2-.44-.37-.11-.17-.16-.41-.16-.72v-7.69h2.08Z" fill="#fff"/>
      <path d="M253.8,120.98c-.44,0-.8.15-1.08.45-.28.3-.42.66-.42,1.08v7.09c0,1.15-.26,2-.79,2.56-.53.56-1.31.84-2.35.84s-1.82-.28-2.35-.84c-.53-.56-.79-1.41-.79-2.56v-7.09c0-.42-.14-.78-.42-1.08s-.64-.45-1.08-.45-.78.15-1.07.45-.44.66-.44,1.08v7.09c0,1.92.53,3.43,1.59,4.53,1.06,1.1,2.58,1.66,4.57,1.66s3.49-.55,4.56-1.66c1.07-1.1,1.6-2.61,1.6-4.53v-7.09c0-.42-.14-.78-.42-1.08s-.64-.45-1.08-.45Z" fill="#fff"/>
      <path d="M267.14,121.12c-.37-.27-.8-.41-1.31-.41s-1.01.07-1.49.22c-.48.15-.93.36-1.34.63-.41.27-.77.6-1.08.98-.2.25-.37.53-.52.82v-.85c0-.42-.14-.78-.42-1.08s-.64-.45-1.08-.45-.78.15-1.07.45-.44.66-.44,1.08v11.47c0,.44.14.8.42,1.09.28.29.64.44,1.08.44s.8-.15,1.08-.44.42-.66.42-1.09v-6.54c0-.64.1-1.21.29-1.73.19-.51.44-.94.74-1.3.3-.36.63-.63,1-.81.37-.18.73-.27,1.1-.27s.66.06.93.18c.27.12.57.18.88.18.35,0,.66-.12.94-.36s.42-.63.42-1.18c0-.42-.18-.77-.55-1.04Z" fill="#fff"/>
      <path d="M279.95,122.78c-.63-.65-1.35-1.15-2.16-1.52-.81-.36-1.67-.55-2.59-.55-1.19,0-2.31.31-3.38.92-1.07.61-1.93,1.49-2.59,2.64s-.99,2.54-.99,4.16c0,1.41.31,2.67.92,3.78.61,1.11,1.48,1.99,2.61,2.63,1.13.64,2.46.96,4,.96.93,0,1.82-.16,2.68-.49.86-.33,1.53-.72,2.03-1.18.46-.35.68-.75.68-1.2,0-.33-.12-.62-.37-.88s-.55-.38-.92-.38c-.27,0-.57.08-.88.25-.2.15-.44.31-.71.49-.27.18-.62.33-1.04.45-.42.12-.96.18-1.62.18-.8,0-1.54-.19-2.22-.58-.68-.38-1.22-.93-1.64-1.64-.28-.47-.46-1.01-.55-1.62h9.26c.4,0,.75-.13,1.05-.38s.46-.58.48-.99c0-.99-.19-1.91-.56-2.78s-.88-1.62-1.51-2.27ZM272.35,124.5c.36-.37.79-.64,1.29-.79.49-.15,1.01-.23,1.56-.23.58,0,1.14.13,1.67.38.53.26.98.61,1.34,1.07.37.46.57.97.6,1.53v.22h-7.52c.05-.25.11-.5.19-.71.22-.6.51-1.09.88-1.47Z" fill="#fff"/>
      <path d="M286.24,115.26c-.44,0-.8.15-1.1.44s-.44.66-.44,1.09v17.19c0,.44.14.8.42,1.09s.63.44,1.05.44.8-.15,1.09-.44.44-.66.44-1.09v-17.19c0-.44-.14-.8-.42-1.09s-.63-.44-1.05-.44Z" fill="#fff"/>
      <path d="M292.73,115.26c-.44,0-.8.15-1.1.44s-.44.66-.44,1.09v17.19c0,.44.14.8.42,1.09s.63.44,1.05.44.8-.15,1.09-.44.44-.66.44-1.09v-17.19c0-.44-.14-.8-.42-1.09s-.63-.44-1.05-.44Z" fill="#fff"/>
      <path d="M310.14,128.82c.3-.26.46-.58.48-.99,0-.99-.19-1.91-.56-2.78s-.88-1.62-1.51-2.27-1.35-1.15-2.16-1.52c-.81-.36-1.67-.55-2.59-.55-1.19,0-2.31.31-3.38.92-1.07.61-1.93,1.49-2.59,2.64s-.99,2.54-.99,4.16c0,1.41.31,2.67.92,3.78.61,1.11,1.48,1.99,2.61,2.63,1.13.64,2.46.96,4,.96.93,0,1.82-.16,2.68-.49.86-.33,1.53-.72,2.03-1.18.46-.35.68-.75.68-1.2,0-.33-.12-.62-.37-.88s-.55-.38-.92-.38c-.27,0-.57.08-.88.25-.2.15-.44.31-.71.49-.27.18-.62.33-1.04.45-.42.12-.96.18-1.62.18-.8,0-1.54-.19-2.22-.58-.68-.38-1.22-.93-1.64-1.64-.28-.47-.46-1.01-.55-1.62h9.26c.4,0,.75-.13,1.05-.38ZM300.95,124.5c.36-.37.79-.64,1.29-.79.49-.15,1.01-.23,1.56-.23.58,0,1.14.13,1.67.38.53.26.98.61,1.34,1.07.37.46.57.97.6,1.53v.22h-7.52c.05-.25.11-.5.19-.71.22-.6.51-1.09.88-1.47Z" fill="#fff"/>
    </g>
  </g>
  <g>
    <path d="M18.46,45.06c-4.57-4.19-13.37,2.06-17.07,4.78-3.14,2.31-.99,4.47,6.57,3.8,5.59-.49,15.99-3.54,10.5-8.57Z" fill="#fff"/>
    <path d="M186.85,78.45c-.55-.32-1.03-.69-1.44-1.12s-.61-1.1-.61-2v-32.92c0-.9.2-1.57.61-2s.89-.8,1.44-1.12,1.03-.73,1.44-1.24.61-1.29.61-2.34c0-1.17-.34-2.02-1.01-2.55s-1.57-.8-2.67-.8h-15.98c-1.11,0-1.99.27-2.66.8s-1,1.38-1,2.55c0,1,.2,1.76.61,2.27s.89.94,1.43,1.28,1.02.73,1.43,1.17.61,1.1.61,1.98v19.31h-9.56v-8.82c0-.88.2-1.54.61-1.98s.89-.82,1.44-1.15,1.03-.75,1.44-1.26.61-1.28.61-2.3c0-1.17-.34-2.02-1.01-2.55s-1.57-.8-2.67-.8h-15.98c-1.11,0-2,.27-2.67.8s-1.01,1.38-1.01,2.55c0,1.02.2,1.79.61,2.3s.89.93,1.44,1.26,1.03.71,1.44,1.15.61,1.1.61,1.98v16.2c2.01.75,4.21,2.62,5.31,7.04.66,2.66.41,4.69-.77,6.19-.71.91-2.1,2-4.66,2-1.15,0-2.38-.22-3.59-.51.16.29.35.55.61.75.68.53,1.57.8,2.67.8h15.98c1.11,0,2-.27,2.67-.8s1.01-1.38,1.01-2.55c0-1.04-.2-1.83-.61-2.35s-.89-.95-1.44-1.28-1.03-.71-1.44-1.14-.61-1.08-.61-1.94v-6.79h9.56v6.79c0,.9-.2,1.57-.61,2s-.89.8-1.43,1.12-1.02.73-1.43,1.23-.61,1.29-.61,2.35c0,1.17.33,2.02,1,2.55s1.55.8,2.66.8h15.98c1.11,0,2-.27,2.67-.8s1.01-1.38,1.01-2.55c0-1.07-.2-1.85-.61-2.35s-.89-.91-1.44-1.23Z" fill="#fff"/>
    <path d="M147.42,76.86c-2.29-9.23-9.58-4-13.51-1.46-2.88,1.86-1.94,3.26,3.42,4.34,4.05.82,11.91,4.46,10.09-2.88Z" fill="#fff"/>
    <path d="M135.39,125.37c-1.48-.85-3.26-1.77-4.35-2.92-1.09-1.15-1.93-2.28-1.59-4.66.32-2.24,1.45-4.4,3.6-7.07.93-1.16,3.46-5.37-1.13-6.27-4.33-.85-9.12,8.02-19.4,4.98-5.82-1.72-15.15-10.51-14.22-15.13.97-4.85,6.43-1.34,9.5.03,4.5,2.01,10.71,4.43,17.98,4.53,5.57.07,12.72-4.02,8.07-10.07-4.36-5.66-6.36-14.5-6.44-24.6-.34.06-.69.1-1.07.11-9.56.22-13.03-6.47-19.03-8.95-8.64-3.57-12.25,1.7-14.53.82-.83-.32.23-1.48,1.64-2.49,12.49-9,18.17,1.51,27.48,4,1.32.35,3.59.41,5.67.56.38-6.34,1.43-13,3.04-19.59.78-3.17,3.31-4.11,4.79-4.96,1.48-.85,2.76-1.95,3.85-3.32s1.64-3.44,1.64-6.23c0-3.12-.9-5.38-2.71-6.8-1.8-1.42-4.18-2.13-7.13-2.13h-42.63c-2.95,0-5.32.71-7.09,2.13-1.78,1.42-2.66,3.69-2.66,6.8,0,2.68.55,4.7,1.64,6.07,1.09,1.37,2.36,2.5,3.81,3.4,1.45.9,2.72,1.94,3.81,3.12,1.09,1.18,1.64,2.94,1.64,5.29v23.53h-29.8v-16.81c-1.63.64-4.04,1.18-7.29,1.53-7.41.79-21.8-.1-16.07-7.05,4.71-5.72,17.69-1.03,23.36,1.15v-6.17c-4.71-1.11-11.37-3.77-15.71-4.67-5.52-1.15-15.34,2.29-11.35-1.66,8.27-8.18,15.33-1.11,24.29,2.45,1.01.4,1.93.74,2.77,1.04v-8.53c0-2.35.55-4.11,1.64-5.29,1.09-1.18,2.38-2.2,3.85-3.07s2.76-1.99,3.85-3.36,1.64-3.42,1.64-6.15c0-3.12-.9-5.38-2.71-6.8C66.24.71,63.86,0,60.91,0H18.28C15.32,0,12.95.71,11.14,2.13c-1.8,1.42-2.71,3.69-2.71,6.8,0,2.73.55,4.78,1.64,6.15,1.09,1.37,2.38,2.49,3.85,3.36s2.86,1.82,3.85,3.07c3.46,4.37,6.66,16.87,5.52,30.49-.65,7.76-5.78,14.87-3.75,19.83,1.65,4.04,8.41.63,16.17-.13,6.62-.65,12.89,4.02,14.87,6.95,1.55,2.3,1.28,5.2-.58,5.62-3.01.69-6.21-2.88-12.4-3.68-11.03-1.43-18.14.32-18.95,3.26-.94,3.41,7.44,14.94,1.56,22.06-1.02,1.24-4.8,3.41-6.28,4.29s-2.76,1.99-3.85,3.36c-1.09,1.37-1.64,3.42-1.64,6.15,0,3.12.9,5.38,2.71,6.8,1.8,1.42,4.18,2.13,7.13,2.13h42.63c2.95,0,5.33-.71,7.13-2.13,1.8-1.42,2.71-3.69,2.71-6.8,0-2.79-.55-4.88-1.64-6.27s-2.38-2.53-3.85-3.4-2.76-1.89-3.85-3.03c-1.09-1.15-1.64-2.87-1.64-5.17v-18.12h29.8v33.31c0,2.4-.55,4.18-1.64,5.33-1.09,1.15-2.36,2.15-3.81,2.99-1.45.85-2.72,1.94-3.81,3.28s-1.64,3.43-1.64,6.27c0,3.12.89,5.38,2.66,6.8,1.78,1.42,4.14,2.13,7.09,2.13h42.63c2.95,0,5.33-.71,7.13-2.13,1.8-1.42,2.71-3.69,2.71-6.8,0-2.84-.55-4.93-1.64-6.27s-2.38-2.43-3.85-3.28ZM97.84,64.9c8.35-7.65,17.26,1.83,22.21,6.67,3.63,3.54,1.41,4.35-7.65,2.19-6.86-1.63-21.2-2.78-14.56-8.86Z" fill="#fff"/>
  </g>
  <g>
    <path d="M204.85,26.83c.38,0,.68.13.89.39s.31.57.31.94v15.48c0,.27.01.53.04.79s.14.49.35.69c.25.25.47.45.65.61s.27.44.27.85-.13.74-.39.95-.59.32-.99.32h-6.15c-.4,0-.73-.11-.99-.32s-.39-.53-.39-.95c0-.35.07-.61.2-.78s.28-.31.46-.43.33-.29.46-.51.2-.57.2-1.04v-11.33c0-.45-.07-.77-.22-.98s-.32-.36-.52-.47-.37-.23-.52-.38-.22-.38-.22-.71c0-.37.12-.66.36-.87s.52-.37.82-.49l3.12-1.22c.37-.15.75-.28,1.12-.39s.76-.17,1.16-.17Z" fill="#fff"/>
    <path d="M222.91,38.61c0,.83-.24,1.46-.73,1.89s-1.13.64-1.94.64h-5.63c.21.8.6,1.47,1.15,2.02s1.34.82,2.38.82c.41,0,.82-.09,1.22-.26s.79-.37,1.15-.61.67-.44.94-.61.48-.26.61-.26c.27,0,.47.1.59.29s.18.41.18.65c0,.85-.2,1.59-.59,2.23s-.92,1.17-1.56,1.59-1.36.73-2.12.94-1.53.31-2.27.31c-1.46,0-2.75-.3-3.87-.91s-1.99-1.46-2.62-2.55-.94-2.38-.94-3.86c0-1.58.31-2.96.92-4.14s1.49-2.08,2.63-2.73,2.52-.97,4.12-.97c1.11,0,2.15.21,3.12.63s1.76,1.04,2.37,1.86.91,1.83.91,3.03ZM214.36,38.98v.31h1.45c.35,0,.6-.08.73-.24s.2-.41.2-.75c0-.22-.03-.52-.08-.88s-.17-.69-.33-.98-.4-.43-.71-.43c-.28,0-.5.11-.67.34s-.29.51-.38.85-.14.67-.17,1-.04.59-.04.78Z" fill="#fff"/>
    <path d="M231.57,35.48c-.32,0-.6.07-.85.21s-.38.39-.38.75c0,.3.07.53.21.68s.34.29.6.41c.28.12.57.21.88.27s.61.12.89.18c.86.19,1.66.5,2.4.94s1.35,1.01,1.81,1.7.69,1.52.69,2.47c0,1.28-.29,2.29-.87,3.05s-1.34,1.29-2.3,1.62-2,.49-3.14.49c-.29,0-.69-.04-1.19-.11s-.88-.18-1.12-.31h-.01c-.09-.05-.25-.1-.46-.15s-.37-.08-.48-.08c-.29,0-.54.11-.74.34s-.46.34-.75.34c-.4,0-.71-.13-.94-.39s-.4-.57-.52-.93-.22-.69-.31-1c-.07-.26-.14-.52-.22-.78s-.13-.52-.13-.79c0-.48.13-.88.39-1.17s.64-.45,1.13-.45.88.1,1.2.31.6.47.85.78.5.62.75.93.57.57.93.78.82.31,1.37.31c.38,0,.67-.11.87-.34s.29-.52.29-.89c0-.52-.14-.86-.42-1.01s-.64-.27-1.08-.35c-.8-.16-1.56-.34-2.28-.56s-1.36-.51-1.91-.88-.99-.87-1.31-1.48-.48-1.41-.48-2.38c0-1.15.31-2.08.94-2.8s1.42-1.26,2.38-1.6,1.94-.52,2.94-.52c.38,0,.76.01,1.12.04s.73.1,1.1.22c.05,0,.16.05.33.11s.43.16.76.28c.31,0,.57-.11.79-.33s.48-.33.79-.33c.39,0,.68.15.87.45s.32.65.4,1.05.14.74.19,1.02c.04.21.07.43.11.65s.06.44.06.65c0,.37-.09.72-.26,1.05s-.48.5-.92.5-.82-.15-1.16-.45-.67-.65-1.01-1.04-.72-.74-1.16-1.04-.98-.45-1.63-.45Z" fill="#fff"/>
  </g>
</svg>